<svg xmlns="http://www.w3.org/2000/svg" width="1591.324" height="1060.893" viewBox="0 0 1591.324 1060.893">
  <g id="react-landingpage" transform="translate(-884.747 -31.282)">
    <path id="Path_5" data-name="Path 5" d="M869.686,406.436c239.957-489.95,681.356,126.259,1109.643,86.927S2477.541,764.32,2307.1,956.613s-406.028,401.452-821.2,288.917S629.728,896.386,869.686,406.436Z" transform="translate(83 -185)" fill="#dfebff"/>
    <g id="Group_2" data-name="Group 2" transform="translate(-122 -33.884)">
      <g id="Browser" transform="translate(1090 226)">
        <rect id="Background" width="1028" height="690" rx="10" transform="translate(0 28.884)" fill="#f2f6fb"/>
        <g id="Gallery-">
          <path id="Combined-Shape" d="M0,17.672A17.668,17.668,0,0,1,17.672,0h992.95a17.674,17.674,0,0,1,17.668,17.672v21.2H0ZM696.433,443.011a17.672,17.672,0,0,1,17.67-17.673H949.861a17.675,17.675,0,0,1,17.668,17.673V594.628A17.674,17.674,0,0,1,949.861,612.3H714.1a17.672,17.672,0,0,1-17.67-17.673Zm-317.834,0a17.672,17.672,0,0,1,17.669-17.673H632.023a17.672,17.672,0,0,1,17.669,17.673V594.628A17.672,17.672,0,0,1,632.023,612.3H396.267A17.672,17.672,0,0,1,378.6,594.628Z" fill="#d8deed"/>
          <circle id="Burron" cx="8.5" cy="8.5" r="8.5" transform="translate(17 11.884)" fill="#ff5645"/>
          <circle id="Burron-2" data-name="Burron" cx="8.5" cy="8.5" r="8.5" transform="translate(45 11.884)" fill="#ffcb3d"/>
          <circle id="Burron-3" data-name="Burron" cx="8.5" cy="8.5" r="8.5" transform="translate(73 11.884)" fill="#3abf7c"/>
        </g>
      </g>
      <g id="Video" transform="translate(1538.459 700.392)">
        <g id="Icons-_-Video" data-name="Icons-/-Video" transform="translate(0 0)">
          <g id="Group_1" data-name="Group 1">
            <path id="Combined-Shape-2" data-name="Combined-Shape" d="M424.2,47.591l-76.6,38.3a.884.884,0,0,1-1.278-.79V8.5a.883.883,0,0,1,1.278-.79l76.6,38.3a.884.884,0,0,1,0,1.58ZM74.93,88.8l-5.731.064.041-.064H1.252c-.975,0-1.346-.674-.827-1.5L48.87,9.625a1.05,1.05,0,0,1,1.913-.03L85.526,62.634,99.167,40.719a1.072,1.072,0,0,1,1.939-.041L132.4,86.061c.556.806.22,1.483-.755,1.513l-29.7.918-.3,0,.18.3H74.93Zm26.253-66.725a11.019,11.019,0,1,1,10.941-11.019A10.98,10.98,0,0,1,101.183,22.074Z" transform="translate(-0.191 -0.036)" fill="#f2f6fb"/>
          </g>
        </g>
      </g>
      <rect id="Mask" width="906" height="293" rx="20" transform="translate(1151 316.884)" fill="#e1e5f0"/>
      <path id="Combined-Shape-3" data-name="Combined-Shape" d="M399.868,701.627h207.2a13.251,13.251,0,0,1,13.251,13.251v8.272A13.252,13.252,0,0,1,607.068,736.4h-207.2a13.251,13.251,0,0,1-13.251-13.251v-8.272A13.25,13.25,0,0,1,399.868,701.627Zm317.835,0H924.9a13.247,13.247,0,0,1,13.251,13.251v8.272A13.248,13.248,0,0,1,924.9,736.4H717.7a13.252,13.252,0,0,1-13.251-13.251v-8.272A13.251,13.251,0,0,1,717.7,701.627ZM82.033,619.036h207.2a13.251,13.251,0,0,1,13.251,13.251v8.273a13.251,13.251,0,0,1-13.251,13.251H82.033A13.251,13.251,0,0,1,68.782,640.56v-8.273A13.251,13.251,0,0,1,82.033,619.036Zm0,56.509h207.2A13.251,13.251,0,0,1,302.484,688.8v8.273a13.251,13.251,0,0,1-13.251,13.251H82.033A13.251,13.251,0,0,1,68.782,697.07V688.8A13.251,13.251,0,0,1,82.033,675.545Z" transform="translate(1081.981 153.827)" fill="#e1e5f0"/>
      <path id="Text" d="M82.033,481.473H279.884a13.25,13.25,0,0,1,13.251,13.251v7.524A13.25,13.25,0,0,1,279.884,515.5H82.033a13.251,13.251,0,0,1-13.251-13.251v-7.524A13.251,13.251,0,0,1,82.033,481.473Zm0,55.294H251.841a13.251,13.251,0,0,1,13.251,13.251v7.525a13.251,13.251,0,0,1-13.251,13.251H82.033a13.251,13.251,0,0,1-13.251-13.251v-7.525A13.251,13.251,0,0,1,82.033,536.767Z" transform="translate(1081.981 169.866)" fill="#474bff"/>
    </g>
  </g>
</svg>
